{
    "asset": {
        "generator": "FBX2glTF v0.9.7",
        "version": "2.0"
    },
    "scene": 0,
    "extensionsUsed": [
        "KHR_lights_punctual"
    ],
    "buffers": [
        {
            "byteLength": 444132,
            "uri": "buffer.bin"
        }
    ],
    "bufferViews": [
        {
            "buffer": 0,
            "byteLength": 45828,
            "byteOffset": 0,
            "target": 34963
        },
        {
            "buffer": 0,
            "byteLength": 149364,
            "byteOffset": 45828,
            "target": 34962
        },
        {
            "buffer": 0,
            "byteLength": 149364,
            "byteOffset": 195192,
            "target": 34962
        },
        {
            "buffer": 0,
            "byteLength": 99576,
            "byteOffset": 344556,
            "target": 34962
        }
    ],
    "scenes": [
        {
            "name": "Root Scene",
            "nodes": [
                0
            ]
        }
    ],
    "accessors": [
        {
            "componentType": 5123,
            "type": "SCALAR",
            "count": 22914,
            "bufferView": 0,
            "byteOffset": 0
        },
        {
            "componentType": 5126,
            "type": "VEC3",
            "count": 12447,
            "bufferView": 1,
            "byteOffset": 0,
            "min": [
                -0.00175026000943035,
                -0.00312678003683686,
                -0.00495788967236876
            ],
            "max": [
                0.00192500988487154,
                0.0025851100217551,
                0.00504211010411382
            ]
        },
        {
            "componentType": 5126,
            "type": "VEC3",
            "count": 12447,
            "bufferView": 2,
            "byteOffset": 0
        },
        {
            "componentType": 5126,
            "type": "VEC2",
            "count": 12447,
            "bufferView": 3,
            "byteOffset": 0
        }
    ],
    "images": [
        {
            "name": "Bison.png",
            "uri": "Bison.png"
        }
    ],
    "samplers": [
        {}
    ],
    "textures": [
        {
            "name": "Bison_png",
            "sampler": 0,
            "source": 0
        }
    ],
    "materials": [
        {
            "name": "BisonTexture__Bison_png",
            "alphaMode": "OPAQUE",
            "extras": {
                "fromFBX": {
                    "shadingModel": "Lambert",
                    "isTruePBR": false
                }
            },
            "pbrMetallicRoughness": {
                "baseColorTexture": {
                    "index": 0,
                    "texCoord": 0
                },
                "baseColorFactor": [
                    1.0,
                    1.0,
                    1.0,
                    1.0
                ],
                "metallicFactor": 0.200000002980232,
                "roughnessFactor": 0.800000011920929
            }
        }
    ],
    "meshes": [
        {
            "name": "Bison",
            "primitives": [
                {
                    "material": 0,
                    "mode": 4,
                    "attributes": {
                        "NORMAL": 2,
                        "POSITION": 1,
                        "TEXCOORD_0": 3
                    },
                    "indices": 0
                }
            ]
        }
    ],
    "cameras": [
        {
            "name": "",
            "type": "perspective",
            "perspective": {
                "znear": 0.100000001490116,
                "zfar": 99.9999923706055,
                "aspectRatio": 1.77777802944183,
                "yfov": 0.503379642963409
            }
        }
    ],
    "nodes": [
        {
            "name": "RootNode",
            "translation": [
                0.0,
                0.0,
                0.0
            ],
            "rotation": [
                0.0,
                0.0,
                0.0,
                1.0
            ],
            "scale": [
                1.0,
                1.0,
                1.0
            ],
            "children": [
                1,
                2,
                3
            ]
        },
        {
            "name": "Bison",
            "translation": [
                0.0,
                0.0,
                0.0
            ],
            "rotation": [
                -3.49932858026685e-15,
                1.0,
                -8.14603424714733e-08,
                -4.37091323135519e-08
            ],
            "scale": [
                1.0,
                1.0,
                1.0
            ],
            "mesh": 0
        },
        {
            "name": "Lamp",
            "translation": [
                -0.0407624505460262,
                0.059038620442152,
                0.0100545389577746
            ],
            "rotation": [
                0.272171407938004,
                -0.570947468280792,
                0.169075712561607,
                0.755880355834961
            ],
            "scale": [
                1.0,
                0.999999940395355,
                1.0
            ],
            "extensions": {
                "KHR_lights_punctual": {
                    "light": 0
                }
            }
        },
        {
            "name": "Camera",
            "translation": [
                -0.0748113170266151,
                0.0534366518259048,
                -0.0650763958692551
            ],
            "rotation": [
                -0.085793137550354,
                -0.893293023109436,
                -0.212056457996368,
                0.38690972328186
            ],
            "scale": [
                1.0,
                0.999999940395355,
                1.0
            ],
            "camera": 0
        }
    ],
    "extensions": {
        "KHR_lights_punctual": {
            "lights": [
                {
                    "name": "",
                    "color": [
                        1.0,
                        1.0,
                        1.0
                    ],
                    "intensity": 1.0,
                    "type": "point"
                }
            ]
        }
    }
}