{
    "asset": {
        "generator": "FBX2glTF v0.9.7",
        "version": "2.0"
    },
    "scene": 0,
    "buffers": [
        {
            "byteLength": 449224,
            "uri": "buffer.bin"
        }
    ],
    "bufferViews": [
        {
            "buffer": 0,
            "byteLength": 40524,
            "byteOffset": 0,
            "target": 34963
        },
        {
            "buffer": 0,
            "byteLength": 53916,
            "byteOffset": 40524,
            "target": 34962
        },
        {
            "buffer": 0,
            "byteLength": 53916,
            "byteOffset": 94440,
            "target": 34962
        },
        {
            "buffer": 0,
            "byteLength": 35944,
            "byteOffset": 148356,
            "target": 34962
        },
        {
            "buffer": 0,
            "byteLength": 41820,
            "byteOffset": 184300,
            "target": 34963
        },
        {
            "buffer": 0,
            "byteLength": 83664,
            "byteOffset": 226120,
            "target": 34962
        },
        {
            "buffer": 0,
            "byteLength": 83664,
            "byteOffset": 309784,
            "target": 34962
        },
        {
            "buffer": 0,
            "byteLength": 55776,
            "byteOffset": 393448,
            "target": 34962
        }
    ],
    "scenes": [
        {
            "name": "Root Scene",
            "nodes": [
                0
            ]
        }
    ],
    "accessors": [
        {
            "componentType": 5123,
            "type": "SCALAR",
            "count": 20262,
            "bufferView": 0,
            "byteOffset": 0
        },
        {
            "componentType": 5126,
            "type": "VEC3",
            "count": 4493,
            "bufferView": 1,
            "byteOffset": 0,
            "min": [
                -0.015695609152317,
                0.0,
                -0.0140899596735835
            ],
            "max": [
                0.0136212892830372,
                0.0358876995742321,
                0.0139195090159774
            ]
        },
        {
            "componentType": 5126,
            "type": "VEC3",
            "count": 4493,
            "bufferView": 2,
            "byteOffset": 0
        },
        {
            "componentType": 5126,
            "type": "VEC2",
            "count": 4493,
            "bufferView": 3,
            "byteOffset": 0
        },
        {
            "componentType": 5123,
            "type": "SCALAR",
            "count": 20910,
            "bufferView": 4,
            "byteOffset": 0
        },
        {
            "componentType": 5126,
            "type": "VEC3",
            "count": 6972,
            "bufferView": 5,
            "byteOffset": 0,
            "min": [
                -0.018449179828167,
                0.0149479992687702,
                -0.0184191297739744
            ],
            "max": [
                0.0178889203816652,
                0.0382195971906185,
                0.0170332193374634
            ]
        },
        {
            "componentType": 5126,
            "type": "VEC3",
            "count": 6972,
            "bufferView": 6,
            "byteOffset": 0
        },
        {
            "componentType": 5126,
            "type": "VEC2",
            "count": 6972,
            "bufferView": 7,
            "byteOffset": 0
        }
    ],
    "images": [
        {
            "name": "bark_0021.jpg",
            "uri": "bark_0021.jpg"
        },
        {
            "name": "DB2X2_L01_Nor.png",
            "uri": "DB2X2_L01_Nor.png"
        },
        {
            "name": "DB2X2_L01.png",
            "uri": "DB2X2_L01.png"
        }
    ],
    "samplers": [
        {}
    ],
    "textures": [
        {
            "name": "Trank_bark1F",
            "sampler": 0,
            "source": 0
        },
        {
            "name": "DB2X2_L01_Nor_1",
            "sampler": 0,
            "source": 1
        },
        {
            "name": "DB2X2_L01_1",
            "sampler": 0,
            "source": 2
        }
    ],
    "materials": [
        {
            "name": "Trank_bark1",
            "alphaMode": "OPAQUE",
            "extras": {
                "fromFBX": {
                    "shadingModel": "Phong",
                    "isTruePBR": false
                }
            },
            "pbrMetallicRoughness": {
                "baseColorTexture": {
                    "index": 0,
                    "texCoord": 0
                },
                "baseColorFactor": [
                    0.800000011920929,
                    0.800000011920929,
                    0.800000011920929,
                    1.0
                ],
                "metallicFactor": 0.400000005960464,
                "roughnessFactor": 0.31622776389122
            }
        },
        {
            "name": "DB2X2_L02",
            "alphaMode": "BLEND",
            "extras": {
                "fromFBX": {
                    "shadingModel": "Phong",
                    "isTruePBR": false
                }
            },
            "normalTexture": {
                "index": 1,
                "texCoord": 0
            },
            "pbrMetallicRoughness": {
                "baseColorTexture": {
                    "index": 2,
                    "texCoord": 0
                },
                "baseColorFactor": [
                    0.800000011920929,
                    0.800000011920929,
                    0.800000011920929,
                    0.0
                ],
                "metallicFactor": 0.400000005960464,
                "roughnessFactor": 0.449693769216537
            }
        }
    ],
    "meshes": [
        {
            "name": "polySurface1",
            "primitives": [
                {
                    "material": 0,
                    "mode": 4,
                    "attributes": {
                        "NORMAL": 2,
                        "POSITION": 1,
                        "TEXCOORD_0": 3
                    },
                    "indices": 0
                },
                {
                    "material": 1,
                    "mode": 4,
                    "attributes": {
                        "NORMAL": 6,
                        "POSITION": 5,
                        "TEXCOORD_0": 7
                    },
                    "indices": 4
                }
            ]
        }
    ],
    "nodes": [
        {
            "name": "RootNode",
            "translation": [
                0.0,
                0.0,
                0.0
            ],
            "rotation": [
                0.0,
                0.0,
                0.0,
                1.0
            ],
            "scale": [
                1.0,
                1.0,
                1.0
            ],
            "children": [
                1
            ]
        },
        {
            "name": "polySurface1",
            "translation": [
                0.0,
                0.0,
                0.0
            ],
            "rotation": [
                0.0,
                0.0,
                0.0,
                1.0
            ],
            "scale": [
                1.0,
                1.0,
                1.0
            ],
            "mesh": 0
        }
    ]
}