{
    "asset": {
        "generator": "FBX2glTF v0.9.7",
        "version": "2.0"
    },
    "scene": 0,
    "extensionsUsed": [
        "KHR_lights_punctual"
    ],
    "buffers": [
        {
            "byteLength": 33560,
            "uri": "buffer.bin"
        }
    ],
    "bufferViews": [
        {
            "buffer": 0,
            "byteLength": 3726,
            "byteOffset": 0,
            "target": 34963
        },
        {
            "buffer": 0,
            "byteLength": 14916,
            "byteOffset": 3728,
            "target": 34962
        },
        {
            "buffer": 0,
            "byteLength": 14916,
            "byteOffset": 18644,
            "target": 34962
        }
    ],
    "scenes": [
        {
            "name": "Root Scene",
            "nodes": [
                0
            ]
        }
    ],
    "accessors": [
        {
            "componentType": 5123,
            "type": "SCALAR",
            "count": 1863,
            "bufferView": 0,
            "byteOffset": 0
        },
        {
            "componentType": 5126,
            "type": "VEC3",
            "count": 1243,
            "bufferView": 1,
            "byteOffset": 0,
            "min": [
                -0.00490605365484953,
                5.1069182518404e-05,
                -0.00718058878555894
            ],
            "max": [
                0.00489775557070971,
                0.0068777552805841,
                0.00925311632454395
            ]
        },
        {
            "componentType": 5126,
            "type": "VEC3",
            "count": 1243,
            "bufferView": 2,
            "byteOffset": 0
        }
    ],
    "samplers": [
        {}
    ],
    "materials": [
        {
            "name": "Material",
            "alphaMode": "OPAQUE",
            "extras": {
                "fromFBX": {
                    "shadingModel": "Phong",
                    "isTruePBR": false
                }
            },
            "pbrMetallicRoughness": {
                "baseColorFactor": [
                    0.64000004529953,
                    0.64000004529953,
                    0.64000004529953,
                    1.0
                ],
                "metallicFactor": 0.400000005960464,
                "roughnessFactor": 0.415087103843689
            }
        }
    ],
    "meshes": [
        {
            "name": "立方体",
            "primitives": [
                {
                    "material": 0,
                    "mode": 4,
                    "attributes": {
                        "NORMAL": 2,
                        "POSITION": 1
                    },
                    "indices": 0
                }
            ]
        }
    ],
    "cameras": [
        {
            "name": "",
            "type": "perspective",
            "perspective": {
                "znear": 10.0,
                "zfar": 10000.0,
                "aspectRatio": 1.77777779102325,
                "yfov": 0.503379940986633
            }
        }
    ],
    "nodes": [
        {
            "name": "RootNode",
            "translation": [
                0.0,
                0.0,
                0.0
            ],
            "rotation": [
                0.0,
                0.0,
                0.0,
                1.0
            ],
            "scale": [
                1.0,
                1.0,
                1.0
            ],
            "children": [
                1,
                2,
                3
            ]
        },
        {
            "name": "立方体",
            "translation": [
                0.0,
                0.0,
                0.0
            ],
            "rotation": [
                -0.707106828689575,
                0.0,
                0.0,
                0.707106709480286
            ],
            "scale": [
                100.0,
                100.0,
                100.0
            ],
            "mesh": 0
        },
        {
            "name": "Lamp",
            "translation": [
                4.07624530792236,
                4.78559923171997,
                -1.00545394420624
            ],
            "rotation": [
                0.169075712561607,
                0.755880355834961,
                -0.272171318531036,
                0.570947468280792
            ],
            "scale": [
                100.000007629395,
                100.0,
                100.0
            ],
            "extensions": {
                "KHR_lights_punctual": {
                    "light": 0
                }
            }
        },
        {
            "name": "Camera",
            "translation": [
                7.4811315536499,
                4.22540235519409,
                6.50763940811157
            ],
            "rotation": [
                -0.209972992539406,
                0.385779976844788,
                0.0906284004449844,
                0.89379620552063
            ],
            "scale": [
                100.0,
                100.000007629395,
                99.9999923706055
            ],
            "camera": 0
        }
    ],
    "extensions": {
        "KHR_lights_punctual": {
            "lights": [
                {
                    "name": "",
                    "color": [
                        1.0,
                        1.0,
                        1.0
                    ],
                    "intensity": 1.0,
                    "type": "point"
                }
            ]
        }
    }
}